<?xml version="1.0" encoding="UTF-8"?>
<svg id="Layer_1" xmlns="http://www.w3.org/2000/svg" version="1.1" viewBox="0 0 1440 4800">
  <!-- Generator: Adobe Illustrator 29.0.0, SVG Export Plug-In . SVG Version: 2.1.0 Build 186)  -->
  <defs>
    <style>
      .st0 {
        fill-rule: evenodd;
      }
    </style>
  </defs>
  <path id="Combined-Shape" class="st0" d="M653,0l27.9,3.1,69,12.5,30.8,4.4,90.2,19.1,99.8,11.7,5.1-1.5h11.7l42.6,2.2,38.2-8.8,102-2.2,146.7-9.5,123,46.2v4722.8H0V275.4s16.2-11,16.2-11l79.2-63.1,66.8-71.2,29.3-22,50.6-37.4,7.3-6.6,19.8-5.9,31.5-21.3,20.5,4.4,23.5-2.9,59.4,8.1,28.6-5.1,21.3,2.2,50.6-24.2,11.7,2.9,22,.7,42.6-19.1,4.4.7,15.8-4.5h51.9Z"/>
</svg>