<?xml version="1.0" encoding="UTF-8"?>
<svg id="Layer_1" xmlns="http://www.w3.org/2000/svg" version="1.1" viewBox="0 0 2000 2000">
  <!-- Generator: Adobe Illustrator 29.0.0, SVG Export Plug-In . SVG Version: 2.1.0 Build 186)  -->
  <defs>
    <style>
      .st0 {
        fill-rule: evenodd;
      }
    </style>
  </defs>
  <path class="st0" d="M1990.7124,425.2605c-12.1873-34.4235-27.3716-75.1907-35.007-110.0219-1.1906-14.049-2.3815-28.1022-3.5721-42.1512-3.8098-14.5252-7.6575-35.7268-8.5731-43.5801-6.6674-19.7639-13.3365-39.5336-20.004-59.2975-7.6252-9.861-26.6831-12.014-35.7213-17.1463-31.0909-17.6544-65.0284-27.4099-100.0199-42.1512-19.3115-8.1356-52.4817-17.0818-71.4427-26.4338-41.7488-20.5914-85.1824-38.6088-135.0269-50.7244-44.9269-10.9202-93.7994.9973-142.8855,9.2875-33.0985.7144-66.2069,1.429-99.3055,2.1433-12.3821,2.8574-24.7681,5.7157-37.1501,8.5731-13.9333,3.5695-23.5577-4.3792-41.4368-2.1433-.2382,1.6669-6.4459.7059-11.4309,0-1.8917,1.5731-3.0779.0162-5.001,1.4289-32.3842-3.8099-64.7781-7.621-97.1621-11.4308-21.9961-4.5564-63.7368-10.213-87.8748-18.5751-8.9552,3.9338-21.3143-5.5797-30.0059-4.2866-10.4462,1.5541-58.5175-8.5458-67.1562-12.1453-15.2396-1.6669-30.4838-3.3342-45.7234-5.001-9.0485.2381-18.0997.4763-27.1482.7144-6.6674,1.9049-13.3367,3.8104-20.004,5.7154-1.4287-.2381-2.8578-.4763-4.2866-.7144-11.0018,7.1705-27.3102,14.9882-41.4368,18.5751-8.1647,2.0731-21.671-.2382-21.4329-.7144-4.6091-1.6251-8.9847-3.6768-11.4308-2.8577-20.0865,4.3871-27.5829,20.0109-49.2955,23.5761-5.9307-.2552-20.7184-1.9052-20.7184-2.1433-9.2866,1.6669-18.576,3.3342-27.8627,5.001-19.2877-2.6193-38.5811-5.2394-57.8687-7.8587-14.1661.9558-22.8617,3.8102-22.8617,2.8577-6.6076-3.4918-19.7659-3.0959-20.004-4.2866-9.1893,1.6269-29.9152,13.1335-30.7204,20.7184-7.665,1.0598-11.8962,3.2017-19.2896,5.7154-1.2167,3.2702-4.5582,2.7547-7.1443,6.4299-10.0986,1.2363-47.6099,28.356-49.2955,36.4358-8.0975,4.2692-28.339,21.4329-28.5771,21.4329-22.8599,21.4769-40.293,49.7426-65.0129,69.2994-25.7169,20.4782-51.4414,40.9626-77.1582,61.4408-15.0015,10.2391-30.0074,20.4813-45.009,30.7204-1.6668,5.2386-3.3342,10.4788-5.001,15.7174-3.2056,7.0709-7.7777,10.6307-8.5731,19.2896-14.576,7.1008-26.6935,28.8787-42.1512,40.0079-19.9633,14.3732-40.5587,26.2611-60.7263,40.008-31.5891,21.5321-73.0948,67.2328-92.8756,100.7343-17.4315,29.5227-23.9122,67.8979-33.5781,102.8776-3.0955,17.3826-6.192,34.7706-9.2875,52.1532-.7144,11.9059-1.429,23.8154-2.1433,35.7214.6821,14.6357,1.9028,47.0027-2.1432,68.5851-9.0128,48.0757-18.7838,101.2933-9.2876,157.8885,3.4799,20.7394,3.7715,57.788,20.004,65.7274-.7892,5.296-2.8516,23.2715,2.1433,29.2916,1.6776-2.0093.695-1.2408.7144-3.5721,5.3688,4.8135,3.3484,17.8965,6.4299,25.0049,2.3812,2.6194,4.7631,5.2395,7.1443,7.8586,2.1986,7.3591.6172,14.7917,2.1432,22.1473-.9525-.2382-1.9052-.4763-2.8577-.7145,1.9388,22.8862,21.0679,45.2786,30.006,69.2996,3.2314,8.6846,7.9673,27.3125,11.4308,30.0059.8797,3.3423,1.5529,1.7881-2.1433,3.5723,1.4646,10.9043-.7326,22.2087,5.7155,33.5781,2.9297,5.1656,10.7414,9.1345,13.5741,14.2886,5.0232,9.1392,5.5457,19.3365,10.7164,28.577,12.5213,22.3761,43.6608,45.7809,59.2975,64.2985,6.1021,7.2263,9.6477,15.0425,16.4319,21.4329,35.7731,33.6975,74.6312,59.943,97.1622,107.1642,8.8976,18.6482,13.7212,42.7849,27.1482,57.1542,9.522,10.1902,19.2083,18.5903,27.8627,30.006,5.392,7.1124,7.1637,27.5148,17.1462,29.2916-.975,3.1636.5204,1.4542-2.1433,2.8577,5.4767,9.2866,10.9551,18.5759,16.4319,27.8625,3.8483,4.6182,9.3622,7.6921,12.1453,13.5742,6.9088,14.6018,10.3416,29.8218,18.5751,42.8657,4.3528,6.8958,12.1621,11.4844,17.8607,17.1462,14.5784,14.4841,24.8635,33.2214,40.0079,47.1521,7.9117,7.2776,19.3362,9.6772,29.2916,15.0031,45.8882,24.549,110.2747,46.9069,165.0328,61.4408,10.4772,1.4287,20.9576,2.8579,31.4348,4.2866,15.954,9.5247,31.9127,19.0522,47.8667,28.577.4762,1.6669.9526,3.3341,1.4288,5.0011,11.61,10.7307,45.0473,18.2344,62.1552,25.0049,18.4866,7.3162,36.8495,16.556,56.4398,24.2905,9.1131,3.598,18.6445,11.8511,26.4338,17.1462,8.0961,3.8099,16.1945,7.621,24.2906,11.4309,4.2861,3.8098,8.5735,7.6208,12.8597,11.4309,12.3623,4.0375,23.673,7.4392,36.4358,14.2885,7.3817,4.7623,14.7656,9.5262,22.1473,14.2886,6.9498,2.191,15.595,2.0077,22.1473,6.4298,2.6193,2.6194,5.2394,5.2395,7.8587,7.8588,29.4646,10.4503,57.4556,21.4271,88.3192,26.7556,13.2573,2.2887,43.1354,6.8224,43.1354,6.8224l24.2906,3.5723,25.005,1.4287s18.17-1.4143,22.8616-2.8577c6.9827-2.1481,19.3295,1.2173,27.1483,2.1433,22.4559,2.6595,44.7845-.6533,62.8696-7.8586,1.9049.238,3.8104.4763,5.7155.7144,6.2122-5.5369,18.9236-10.6882,27.1482-16.4319-1.5916-1.1937,11.7748-11.7529,13.5742-13.574,10.001-12.1442,20.0049-24.2917,30.0059-36.4359,3.646-3.6224,9.8447-5.5575,13.5742-10.7164,4.7163-6.5237,5.5854-17.7361,9.2876-22.8616,14.9727-20.7302,22.8755-41.5291,37.1501-63.5842,5.2379-8.0928,13.1992-14.2568,18.5752-22.1472-.4675-3.4866,42.395-25.9802,53.582-31.4348,1.8274-4.4069,39.9539-12.459,62.8696-20.7184,0-1.4287,20.4023-5.207,27.8627-6.4298,14.4926-2.3755,43.3545-1.5251,57.8687,1.4288,9.0485-.4762,18.0997-.9526,27.1483-1.4288,6.6672-2.3812,13.3365-4.7632,20.0039-7.1443,5.4768-1.905,10.9551-3.8105,16.4319-5.7155,19.7345-16.9731,47.5315-56.0663,47.8666-56.4398,5.149-5.739,18.3752-21.6268,20.7184-20.7183,12.5533-31.0037,48.2468-58.5354,66.4419-88.5891,13.3842-22.1075,21.4186-85.5077,23.576-110.0219-2.6193-13.3346-5.2394-26.6733-7.8588-40.0079,6.1949-27.1439,12.4392-54.1639,22.1472-80.0159-2.4143-6.384,9.002-62.2822,11.4309-75.0149,5.9655-31.2717,1.1626-65.0375,8.5732-102.1633,2.9255-14.6567-6.6068-39.1106-3.5723-60.0118-.9524-10.4772-1.9053-20.9576-2.8577-31.4348.9865-17.0204,8.5166-42.7056,7.8586-62.8696.2382-13.3347.4763-26.6733.7145-40.008,5.0005-12.3821,10.0026-24.7681,15.0031-37.1502,8.77-28.6575,15.0454-56.1215,22.8616-82.1592,10.4771-34.9014,10.0857-66.3785,19.2896-105.7353,9.3503-39.9822,16.7837-82.0769,23.5762-122.8816,5.0944-30.6037,7.1511-59.5563,7.1443-100.0199v-31.4348c-4.7654-17.5238-3.4105-41.9832-9.2876-58.5831ZM947.4899,1928.4164c.7144.4762,1.429.9526,2.1433,1.4288-1.2888-1.4419.0162-.5291-2.1433-1.4288Z"/>
</svg>